<svg width="255" height="136" viewBox="0 0 255 136" fill="none" xmlns="http://www.w3.org/2000/svg">
<rect width="255" height="136" rx="68" fill="#FCF2FE"/>
<path d="M58.7558 51.8C61.9665 51.8 64.4118 52.64 66.0918 54.32C67.8092 55.9627 68.6678 58.3707 68.6678 61.544V61.824C68.6678 64.512 68.1078 66.6027 66.9878 68.096C65.9052 69.5893 64.5798 70.4853 63.0118 70.784V71.176C63.8705 71.3253 64.6918 71.6427 65.4758 72.128C66.2598 72.6133 66.9505 73.2667 67.5478 74.088C68.1452 74.872 68.6118 75.824 68.9478 76.944C69.3212 78.0267 69.5078 79.2773 69.5078 80.696V81.144C69.5078 84.3173 68.5932 86.7627 66.7638 88.48C64.9718 90.16 62.3958 91 59.0358 91H49.9078V51.8H58.7558ZM55.5078 68.6H58.6998C61.6118 68.6 63.0678 66.9947 63.0678 63.784V61.544C63.0678 58.3333 61.6118 56.728 58.6998 56.728H55.5078V68.6ZM55.5078 86.128H58.9798C62.0785 86.128 63.6278 84.4667 63.6278 81.144V78.456C63.6278 75.1333 62.0412 73.472 58.8678 73.472H55.5078V86.128ZM77.5456 51.8V81.872C77.5456 83.664 77.9563 84.9147 78.7776 85.624C79.5989 86.3333 80.5136 86.688 81.5216 86.688C82.5296 86.688 83.4443 86.3333 84.2656 85.624C85.0869 84.9147 85.4976 83.664 85.4976 81.872V51.8H91.0976V81.48C91.0976 83.1973 90.8549 84.6907 90.3696 85.96C89.8843 87.2293 89.2123 88.2933 88.3536 89.152C87.4949 89.9733 86.4683 90.5893 85.2736 91C84.1163 91.3733 82.8283 91.56 81.4096 91.56C80.0283 91.56 78.7589 91.3733 77.6016 91C76.4443 90.5893 75.4363 89.9733 74.5776 89.152C73.7563 88.3307 73.1029 87.2853 72.6176 86.016C72.1696 84.7467 71.9456 83.2347 71.9456 81.48V51.8H77.5456ZM102.834 51.8C106.045 51.8 108.49 52.64 110.17 54.32C111.887 55.9627 112.746 58.3707 112.746 61.544V61.824C112.746 64.512 112.186 66.6027 111.066 68.096C109.983 69.5893 108.658 70.4853 107.09 70.784V71.176C107.949 71.3253 108.77 71.6427 109.554 72.128C110.338 72.6133 111.029 73.2667 111.626 74.088C112.223 74.872 112.69 75.824 113.026 76.944C113.399 78.0267 113.586 79.2773 113.586 80.696V81.144C113.586 84.3173 112.671 86.7627 110.842 88.48C109.05 90.16 106.474 91 103.114 91H93.986V51.8H102.834ZM99.586 68.6H102.778C105.69 68.6 107.146 66.9947 107.146 63.784V61.544C107.146 58.3333 105.69 56.728 102.778 56.728H99.586V68.6ZM99.586 86.128H103.058C106.157 86.128 107.706 84.4667 107.706 81.144V78.456C107.706 75.1333 106.119 73.472 102.946 73.472H99.586V86.128ZM124.928 51.8C128.138 51.8 130.584 52.64 132.264 54.32C133.981 55.9627 134.84 58.3707 134.84 61.544V61.824C134.84 64.512 134.28 66.6027 133.16 68.096C132.077 69.5893 130.752 70.4853 129.184 70.784V71.176C130.042 71.3253 130.864 71.6427 131.648 72.128C132.432 72.6133 133.122 73.2667 133.72 74.088C134.317 74.872 134.784 75.824 135.12 76.944C135.493 78.0267 135.68 79.2773 135.68 80.696V81.144C135.68 84.3173 134.765 86.7627 132.936 88.48C131.144 90.16 128.568 91 125.208 91H116.08V51.8H124.928ZM121.68 68.6H124.872C127.784 68.6 129.24 66.9947 129.24 63.784V61.544C129.24 58.3333 127.784 56.728 124.872 56.728H121.68V68.6ZM121.68 86.128H125.152C128.25 86.128 129.8 84.4667 129.8 81.144V78.456C129.8 75.1333 128.213 73.472 125.04 73.472H121.68V86.128ZM143.773 51.8V86.128H152.173V91H138.173V51.8H143.773ZM159.742 51.8V91H154.142V51.8H159.742ZM182.436 51.8V91H175.94L167.652 61.096H167.316L168.492 91H162.892V51.8H169.388L177.788 81.816H178.124L176.836 51.8H182.436ZM191.13 81.872C191.13 83.4773 191.522 84.6907 192.306 85.512C193.09 86.296 193.968 86.688 194.938 86.688C195.498 86.688 196.058 86.5573 196.618 86.296C197.178 86.0347 197.682 85.6427 198.13 85.12C198.578 84.56 198.933 83.8693 199.194 83.048C199.493 82.2267 199.642 81.2747 199.642 80.192V73.976H195.218V70.224H205.186V91H201.21V86.352H200.818C200.258 88.1067 199.306 89.4133 197.962 90.272C196.618 91.1307 195.181 91.56 193.65 91.56C192.642 91.56 191.653 91.3733 190.682 91C189.712 90.5893 188.834 89.9733 188.05 89.152C187.304 88.2933 186.688 87.2293 186.202 85.96C185.754 84.6907 185.53 83.1973 185.53 81.48V61.32C185.53 59.5653 185.773 58.0533 186.258 56.784C186.744 55.5147 187.416 54.4693 188.274 53.648C189.17 52.8267 190.216 52.2293 191.41 51.856C192.605 51.4453 193.912 51.24 195.33 51.24C196.749 51.24 198.056 51.4453 199.25 51.856C200.445 52.2293 201.472 52.8453 202.33 53.704C203.226 54.5253 203.917 55.5707 204.402 56.84C204.925 58.072 205.186 59.5653 205.186 61.32V67.592H199.642V60.984C199.642 60.088 199.512 59.3413 199.25 58.744C199.026 58.1093 198.709 57.6053 198.298 57.232C197.925 56.8587 197.477 56.5973 196.954 56.448C196.469 56.2613 195.946 56.168 195.386 56.168C194.864 56.168 194.341 56.2613 193.818 56.448C193.296 56.5973 192.829 56.8587 192.418 57.232C192.045 57.6053 191.728 58.1093 191.466 58.744C191.242 59.3413 191.13 60.088 191.13 60.984V81.872Z" fill="black"/>
</svg>
