<svg width="241" height="136" viewBox="0 0 241 136" fill="none" xmlns="http://www.w3.org/2000/svg">
<rect width="241" height="136" rx="68" fill="#F6C4A4"/>
<path d="M55.4505 81.872C55.4505 82.768 55.5625 83.5333 55.7865 84.168C56.0479 84.7653 56.3652 85.2507 56.7385 85.624C57.1492 85.9973 57.6159 86.2773 58.1385 86.464C58.6612 86.6133 59.1839 86.688 59.7065 86.688C60.2665 86.688 60.7892 86.6133 61.2745 86.464C61.7972 86.2773 62.2452 85.9973 62.6185 85.624C63.0292 85.2507 63.3465 84.7653 63.5705 84.168C63.8319 83.5333 63.9625 82.768 63.9625 81.872V73.92H69.5625V81.48C69.5625 83.1973 69.3012 84.6907 68.7785 85.96C68.2932 87.2293 67.6025 88.2933 66.7065 89.152C65.8479 89.9733 64.8025 90.5893 63.5705 91C62.3759 91.3733 61.0692 91.56 59.6505 91.56C58.2319 91.56 56.9252 91.3733 55.7305 91C54.5359 90.5893 53.4905 89.9733 52.5945 89.152C51.7359 88.3307 51.0639 87.2853 50.5785 86.016C50.0932 84.7467 49.8505 83.2347 49.8505 81.48V61.32C49.8505 59.5653 50.0932 58.0533 50.5785 56.784C51.0639 55.5147 51.7359 54.4693 52.5945 53.648C53.4905 52.8267 54.5359 52.2293 55.7305 51.856C56.9252 51.4453 58.2319 51.24 59.6505 51.24C61.0692 51.24 62.3759 51.4453 63.5705 51.856C64.8025 52.2293 65.8479 52.8453 66.7065 53.704C67.6025 54.5253 68.2932 55.5707 68.7785 56.84C69.3012 58.072 69.5625 59.5653 69.5625 61.32V68.88H63.9625V60.928C63.9625 60.032 63.8319 59.2853 63.5705 58.688C63.3465 58.0533 63.0292 57.5493 62.6185 57.176C62.2452 56.8027 61.7972 56.5413 61.2745 56.392C60.7892 56.2053 60.2665 56.112 59.7065 56.112C59.1839 56.112 58.6612 56.2053 58.1385 56.392C57.6159 56.5413 57.1492 56.8027 56.7385 57.176C56.3652 57.5493 56.0479 58.0533 55.7865 58.688C55.5625 59.2853 55.4505 60.032 55.4505 60.928V81.872ZM78.1485 51.8V86.128H86.5485V91H72.5485V51.8H78.1485ZM87.9143 61.32C87.9143 59.5653 88.157 58.0533 88.6423 56.784C89.1277 55.5147 89.7997 54.4693 90.6583 53.648C91.5543 52.8267 92.5997 52.2293 93.7943 51.856C94.989 51.4453 96.277 51.24 97.6583 51.24C99.077 51.24 100.384 51.4453 101.578 51.856C102.81 52.2293 103.874 52.8453 104.77 53.704C105.666 54.5253 106.357 55.5707 106.842 56.84C107.365 58.072 107.626 59.5653 107.626 61.32V81.48C107.626 83.1973 107.365 84.6907 106.842 85.96C106.357 87.2293 105.666 88.2933 104.77 89.152C103.874 89.9733 102.81 90.5893 101.578 91C100.384 91.3733 99.077 91.56 97.6583 91.56C96.277 91.56 94.989 91.3733 93.7943 91C92.5997 90.5893 91.5543 89.9733 90.6583 89.152C89.7997 88.3307 89.1277 87.2853 88.6423 86.016C88.157 84.7467 87.9143 83.2347 87.9143 81.48V61.32ZM93.5143 81.872C93.5143 82.768 93.6263 83.5333 93.8503 84.168C94.1117 84.7653 94.429 85.2507 94.8023 85.624C95.213 85.9973 95.661 86.2773 96.1463 86.464C96.669 86.6133 97.2103 86.688 97.7703 86.688C98.293 86.688 98.8157 86.6133 99.3383 86.464C99.861 86.2773 100.309 85.9973 100.682 85.624C101.093 85.2507 101.41 84.7653 101.634 84.168C101.896 83.5333 102.026 82.768 102.026 81.872V60.928C102.026 60.032 101.896 59.2853 101.634 58.688C101.41 58.0533 101.093 57.5493 100.682 57.176C100.309 56.8027 99.861 56.5413 99.3383 56.392C98.8157 56.2053 98.293 56.112 97.7703 56.112C97.2103 56.112 96.669 56.2053 96.1463 56.392C95.661 56.5413 95.213 56.8027 94.8023 57.176C94.429 57.5493 94.1117 58.0533 93.8503 58.688C93.6263 59.2853 93.5143 60.032 93.5143 60.928V81.872ZM124.444 66.08V60.928C124.444 59.3973 124.071 58.2213 123.324 57.4C122.615 56.5413 121.607 56.112 120.3 56.112C118.994 56.112 117.986 56.5413 117.276 57.4C116.567 58.2213 116.212 59.3973 116.212 60.928V63.112C116.212 63.8587 116.287 64.5307 116.436 65.128C116.586 65.688 116.866 66.2107 117.276 66.696C117.687 67.144 118.247 67.592 118.956 68.04C119.666 68.4507 120.58 68.88 121.7 69.328L123.94 70.168C126.218 71.0267 127.823 72.24 128.756 73.808C129.69 75.3387 130.156 77.5413 130.156 80.416V81.48C130.156 84.6533 129.279 87.136 127.524 88.928C125.807 90.6827 123.38 91.56 120.244 91.56C117.108 91.56 114.7 90.6827 113.02 88.928C111.34 87.1733 110.5 84.6907 110.5 81.48V76.72H116.1V81.872C116.1 83.4027 116.474 84.5973 117.22 85.456C117.967 86.2773 118.994 86.688 120.3 86.688C121.644 86.688 122.69 86.2773 123.436 85.456C124.183 84.5973 124.556 83.4027 124.556 81.872V79.52C124.556 78.7733 124.463 78.12 124.276 77.56C124.127 76.9627 123.847 76.44 123.436 75.992C123.063 75.5067 122.522 75.0587 121.812 74.648C121.14 74.2373 120.263 73.808 119.18 73.36L116.716 72.464C114.514 71.6053 112.946 70.392 112.012 68.824C111.079 67.2187 110.612 64.9973 110.612 62.16V61.32C110.612 58.072 111.452 55.5893 113.132 53.872C114.812 52.1173 117.183 51.24 120.244 51.24C123.343 51.24 125.751 52.136 127.468 53.928C129.186 55.6827 130.044 58.1467 130.044 61.32V66.08H124.444ZM138.686 51.8V81.872C138.686 83.664 139.097 84.9147 139.918 85.624C140.74 86.3333 141.654 86.688 142.662 86.688C143.67 86.688 144.585 86.3333 145.406 85.624C146.228 84.9147 146.638 83.664 146.638 81.872V51.8H152.238V81.48C152.238 83.1973 151.996 84.6907 151.51 85.96C151.025 87.2293 150.353 88.2933 149.494 89.152C148.636 89.9733 147.609 90.5893 146.414 91C145.257 91.3733 143.969 91.56 142.55 91.56C141.169 91.56 139.9 91.3733 138.742 91C137.585 90.5893 136.577 89.9733 135.718 89.152C134.897 88.3307 134.244 87.2853 133.758 86.016C133.31 84.7467 133.086 83.2347 133.086 81.48V51.8H138.686ZM164.255 51.8C167.391 51.8 169.817 52.696 171.535 54.488C173.289 56.28 174.167 58.8933 174.167 62.328V62.552C174.167 65.5387 173.588 67.8533 172.431 69.496C171.273 71.1387 169.911 72.1093 168.343 72.408V72.8C169.127 72.9493 169.855 73.2853 170.527 73.808C171.236 74.2933 171.852 74.9467 172.375 75.768C172.935 76.552 173.364 77.504 173.663 78.624C173.999 79.7067 174.167 80.92 174.167 82.264V82.992C174.167 84.896 174.204 86.464 174.279 87.696C174.353 88.8907 174.503 89.992 174.727 91H169.127C168.828 89.8427 168.66 88.6107 168.623 87.304C168.585 85.96 168.567 84.504 168.567 82.936V79.912C168.567 78.344 168.193 77.1493 167.447 76.328C166.7 75.4693 165.617 75.04 164.199 75.04H160.727V91H155.127V51.8H164.255ZM160.727 70.168H164.199C165.617 70.168 166.7 69.72 167.447 68.824C168.193 67.928 168.567 66.64 168.567 64.96V61.88C168.567 60.2 168.193 58.912 167.447 58.016C166.7 57.12 165.617 56.672 164.199 56.672H160.727V70.168ZM183.039 56.672V68.152H191.159V73.024H183.039V86.128H191.719V91H177.439V51.8H191.439V56.672H183.039Z" fill="black"/>
</svg>
