<svg width="302" height="136" viewBox="0 0 302 136" fill="none" xmlns="http://www.w3.org/2000/svg">
<rect width="302" height="136" rx="68" fill="#D4C1FA"/>
<path d="M59.4096 51.8C60.8283 51.8 62.1349 51.9867 63.3296 52.36C64.5616 52.7333 65.6256 53.312 66.5216 54.096C67.4176 54.88 68.1083 55.888 68.5936 57.12C69.1163 58.3147 69.3776 59.7707 69.3776 61.488V81.312C69.3776 83.0293 69.1163 84.504 68.5936 85.736C68.1083 86.968 67.4176 87.976 66.5216 88.76C65.6256 89.544 64.5616 90.1227 63.3296 90.496C62.1349 90.832 60.8283 91 59.4096 91H50.0576V51.8H59.4096ZM55.6576 86.128H59.3536C59.9509 86.128 60.5109 86.0533 61.0336 85.904C61.5563 85.7547 62.0043 85.4933 62.3776 85.12C62.7883 84.7467 63.1056 84.2613 63.3296 83.664C63.5909 83.0293 63.7216 82.264 63.7216 81.368V61.432C63.7216 60.536 63.5909 59.7893 63.3296 59.192C63.1056 58.5573 62.7883 58.0533 62.3776 57.68C62.0043 57.3067 61.5563 57.0453 61.0336 56.896C60.5109 56.7467 59.9509 56.672 59.3536 56.672H55.6576V86.128ZM77.9141 56.672V68.152H86.0341V73.024H77.9141V86.128H86.5941V91H72.3141V51.8H86.3141V56.672H77.9141ZM97.8965 51.8C101.107 51.8 103.552 52.64 105.232 54.32C106.95 55.9627 107.808 58.3707 107.808 61.544V61.824C107.808 64.512 107.248 66.6027 106.128 68.096C105.046 69.5893 103.72 70.4853 102.152 70.784V71.176C103.011 71.3253 103.832 71.6427 104.616 72.128C105.4 72.6133 106.091 73.2667 106.688 74.088C107.286 74.872 107.752 75.824 108.088 76.944C108.462 78.0267 108.648 79.2773 108.648 80.696V81.144C108.648 84.3173 107.734 86.7627 105.904 88.48C104.112 90.16 101.536 91 98.1765 91H89.0485V51.8H97.8965ZM94.6485 68.6H97.8405C100.752 68.6 102.208 66.9947 102.208 63.784V61.544C102.208 58.3333 100.752 56.728 97.8405 56.728H94.6485V68.6ZM94.6485 86.128H98.1205C101.219 86.128 102.768 84.4667 102.768 81.144V78.456C102.768 75.1333 101.182 73.472 98.0085 73.472H94.6485V86.128ZM111.086 61.32C111.086 59.5653 111.329 58.0533 111.814 56.784C112.3 55.5147 112.972 54.4693 113.83 53.648C114.726 52.8267 115.772 52.2293 116.966 51.856C118.161 51.4453 119.449 51.24 120.83 51.24C122.249 51.24 123.556 51.4453 124.75 51.856C125.982 52.2293 127.046 52.8453 127.942 53.704C128.838 54.5253 129.529 55.5707 130.014 56.84C130.537 58.072 130.798 59.5653 130.798 61.32V81.48C130.798 83.1973 130.537 84.6907 130.014 85.96C129.529 87.2293 128.838 88.2933 127.942 89.152C127.046 89.9733 125.982 90.5893 124.75 91C123.556 91.3733 122.249 91.56 120.83 91.56C119.449 91.56 118.161 91.3733 116.966 91C115.772 90.5893 114.726 89.9733 113.83 89.152C112.972 88.3307 112.3 87.2853 111.814 86.016C111.329 84.7467 111.086 83.2347 111.086 81.48V61.32ZM116.686 81.872C116.686 82.768 116.798 83.5333 117.022 84.168C117.284 84.7653 117.601 85.2507 117.974 85.624C118.385 85.9973 118.833 86.2773 119.318 86.464C119.841 86.6133 120.382 86.688 120.942 86.688C121.465 86.688 121.988 86.6133 122.51 86.464C123.033 86.2773 123.481 85.9973 123.854 85.624C124.265 85.2507 124.582 84.7653 124.806 84.168C125.068 83.5333 125.198 82.768 125.198 81.872V60.928C125.198 60.032 125.068 59.2853 124.806 58.688C124.582 58.0533 124.265 57.5493 123.854 57.176C123.481 56.8027 123.033 56.5413 122.51 56.392C121.988 56.2053 121.465 56.112 120.942 56.112C120.382 56.112 119.841 56.2053 119.318 56.392C118.833 56.5413 118.385 56.8027 117.974 57.176C117.601 57.5493 117.284 58.0533 117.022 58.688C116.798 59.2853 116.686 60.032 116.686 60.928V81.872ZM139.272 51.8V81.872C139.272 83.664 139.683 84.9147 140.504 85.624C141.325 86.3333 142.24 86.688 143.248 86.688C144.256 86.688 145.171 86.3333 145.992 85.624C146.813 84.9147 147.224 83.664 147.224 81.872V51.8H152.824V81.48C152.824 83.1973 152.581 84.6907 152.096 85.96C151.611 87.2293 150.939 88.2933 150.08 89.152C149.221 89.9733 148.195 90.5893 147 91C145.843 91.3733 144.555 91.56 143.136 91.56C141.755 91.56 140.485 91.3733 139.328 91C138.171 90.5893 137.163 89.9733 136.304 89.152C135.483 88.3307 134.829 87.2853 134.344 86.016C133.896 84.7467 133.672 83.2347 133.672 81.48V51.8H139.272ZM175.257 51.8V91H168.761L160.473 61.096H160.137L161.313 91H155.713V51.8H162.209L170.609 81.816H170.945L169.657 51.8H175.257ZM183.951 81.872C183.951 82.768 184.063 83.5333 184.287 84.168C184.548 84.7653 184.865 85.2507 185.239 85.624C185.649 85.9973 186.116 86.2773 186.639 86.464C187.161 86.6133 187.684 86.688 188.207 86.688C188.767 86.688 189.289 86.6133 189.775 86.464C190.297 86.2773 190.745 85.9973 191.119 85.624C191.529 85.2507 191.847 84.7653 192.071 84.168C192.332 83.5333 192.463 82.768 192.463 81.872V73.92H198.063V81.48C198.063 83.1973 197.801 84.6907 197.279 85.96C196.793 87.2293 196.103 88.2933 195.207 89.152C194.348 89.9733 193.303 90.5893 192.071 91C190.876 91.3733 189.569 91.56 188.151 91.56C186.732 91.56 185.425 91.3733 184.231 91C183.036 90.5893 181.991 89.9733 181.095 89.152C180.236 88.3307 179.564 87.2853 179.079 86.016C178.593 84.7467 178.351 83.2347 178.351 81.48V61.32C178.351 59.5653 178.593 58.0533 179.079 56.784C179.564 55.5147 180.236 54.4693 181.095 53.648C181.991 52.8267 183.036 52.2293 184.231 51.856C185.425 51.4453 186.732 51.24 188.151 51.24C189.569 51.24 190.876 51.4453 192.071 51.856C193.303 52.2293 194.348 52.8453 195.207 53.704C196.103 54.5253 196.793 55.5707 197.279 56.84C197.801 58.072 198.063 59.5653 198.063 61.32V68.88H192.463V60.928C192.463 60.032 192.332 59.2853 192.071 58.688C191.847 58.0533 191.529 57.5493 191.119 57.176C190.745 56.8027 190.297 56.5413 189.775 56.392C189.289 56.2053 188.767 56.112 188.207 56.112C187.684 56.112 187.161 56.2053 186.639 56.392C186.116 56.5413 185.649 56.8027 185.239 57.176C184.865 57.5493 184.548 58.0533 184.287 58.688C184.063 59.2853 183.951 60.032 183.951 60.928V81.872ZM206.648 51.8V91H201.048V51.8H206.648ZM229.342 51.8V91H222.846L214.558 61.096H214.222L215.398 91H209.798V51.8H216.294L224.694 81.816H225.03L223.742 51.8H229.342ZM238.036 81.872C238.036 83.4773 238.428 84.6907 239.212 85.512C239.996 86.296 240.874 86.688 241.844 86.688C242.404 86.688 242.964 86.5573 243.524 86.296C244.084 86.0347 244.588 85.6427 245.036 85.12C245.484 84.56 245.839 83.8693 246.1 83.048C246.399 82.2267 246.548 81.2747 246.548 80.192V73.976H242.124V70.224H252.092V91H248.116V86.352H247.724C247.164 88.1067 246.212 89.4133 244.868 90.272C243.524 91.1307 242.087 91.56 240.556 91.56C239.548 91.56 238.559 91.3733 237.588 91C236.618 90.5893 235.74 89.9733 234.956 89.152C234.21 88.2933 233.594 87.2293 233.108 85.96C232.66 84.6907 232.436 83.1973 232.436 81.48V61.32C232.436 59.5653 232.679 58.0533 233.164 56.784C233.65 55.5147 234.322 54.4693 235.18 53.648C236.076 52.8267 237.122 52.2293 238.316 51.856C239.511 51.4453 240.818 51.24 242.236 51.24C243.655 51.24 244.962 51.4453 246.156 51.856C247.351 52.2293 248.378 52.8453 249.236 53.704C250.132 54.5253 250.823 55.5707 251.308 56.84C251.831 58.072 252.092 59.5653 252.092 61.32V67.592H246.548V60.984C246.548 60.088 246.418 59.3413 246.156 58.744C245.932 58.1093 245.615 57.6053 245.204 57.232C244.831 56.8587 244.383 56.5973 243.86 56.448C243.375 56.2613 242.852 56.168 242.292 56.168C241.77 56.168 241.247 56.2613 240.724 56.448C240.202 56.5973 239.735 56.8587 239.324 57.232C238.951 57.6053 238.634 58.1093 238.372 58.744C238.148 59.3413 238.036 60.088 238.036 60.984V81.872Z" fill="black"/>
</svg>
