<svg width="275" height="216" viewBox="0 0 275 216" fill="none" xmlns="http://www.w3.org/2000/svg">
<rect x="45.9596" width="283" height="136" rx="68" transform="rotate(19.7513 45.9596 0)" fill="#D4FCC9"/>
<path d="M83.9718 68.6867C85.307 69.1661 86.4737 69.7834 87.4719 70.5385C88.5053 71.3062 89.3111 72.2104 89.8895 73.2511C90.4678 74.2917 90.7772 75.4738 90.8176 76.7974C90.9058 78.0984 90.6598 79.557 90.0794 81.1733L83.3801 99.831C82.7998 101.447 82.0555 102.747 81.1472 103.73C80.2741 104.725 79.2834 105.441 78.1752 105.876C77.067 106.311 75.87 106.496 74.5843 106.431C73.3464 106.343 72.0598 106.06 70.7246 105.581L61.9228 102.42L75.17 65.5263L83.9718 68.6867ZM68.8398 99.7272L72.3183 100.976C72.8805 101.178 73.4328 101.297 73.9752 101.333C74.5176 101.369 75.0275 101.275 75.5051 101.049C76.0178 100.837 76.4804 100.487 76.8931 100.001C77.3535 99.4918 77.7352 98.8157 78.038 97.9724L84.7751 79.2092C85.0779 78.366 85.2072 77.6191 85.1631 76.9685C85.1668 76.2955 85.0384 75.7139 84.7781 75.2238C84.5529 74.7463 84.2196 74.3489 83.7781 74.0317C83.3367 73.7145 82.8348 73.455 82.2726 73.2532L78.7941 72.0041L68.8398 99.7272ZM99.7412 79.5255L95.8617 90.3301L103.504 93.0741L101.858 97.6595L94.2152 94.9154L89.7869 107.249L97.9562 110.182L96.3098 114.767L82.8699 109.941L96.1171 73.0476L109.293 77.7788L107.647 82.3641L99.7412 79.5255ZM117.138 80.5953L105.537 112.904L113.443 115.742L111.796 120.328L98.6198 115.597L111.867 78.7028L117.138 80.5953ZM130.52 90.5771L126.641 101.382L134.283 104.126L132.637 108.711L124.994 105.967L120.566 118.3L128.735 121.233L127.089 125.819L113.649 120.993L126.896 84.0993L140.073 88.8304L138.426 93.4158L130.52 90.5771ZM137.649 119.912C137.106 121.423 137.065 122.697 137.525 123.735C137.998 124.738 138.692 125.403 139.605 125.731C140.132 125.921 140.703 125.987 141.319 125.93C141.934 125.873 142.541 125.675 143.139 125.334C143.75 124.959 144.317 124.429 144.841 123.744C145.4 123.072 145.862 122.226 146.228 121.207L148.328 115.357L144.165 113.862L145.433 110.331L154.814 113.699L147.793 133.253L144.051 131.909L145.622 127.535L145.253 127.402C144.133 128.864 142.795 129.773 141.24 130.126C139.685 130.48 138.187 130.399 136.747 129.882C135.798 129.541 134.93 129.031 134.142 128.351C133.368 127.637 132.75 126.761 132.29 125.723C131.877 124.662 131.657 123.453 131.629 122.094C131.637 120.748 131.93 119.267 132.511 117.65L139.324 98.6765C139.916 97.0251 140.656 95.684 141.542 94.6534C142.427 93.6228 143.413 92.866 144.499 92.3832C145.62 91.913 146.805 91.704 148.056 91.7564C149.319 91.7736 150.618 92.0219 151.953 92.5013C153.289 92.9808 154.449 93.6156 155.435 94.4058C156.433 95.1609 157.191 96.0876 157.709 97.1859C158.275 98.2617 158.571 99.479 158.599 100.838C158.675 102.174 158.416 103.668 157.823 105.319L155.704 111.222L150.486 109.349L152.719 103.129C153.022 102.286 153.151 101.539 153.107 100.889C153.111 100.216 152.982 99.634 152.722 99.1438C152.497 98.6663 152.163 98.2689 151.722 97.9517C151.328 97.6121 150.868 97.3476 150.341 97.1583C149.849 96.9817 149.325 96.8929 148.77 96.892C148.228 96.8559 147.7 96.9441 147.188 97.1567C146.71 97.3819 146.241 97.7491 145.781 98.2581C145.368 98.7446 145.01 99.4095 144.708 100.253L137.649 119.912ZM176.249 101.82L168.641 140.739L163.37 138.846L165.526 127.541L159.781 125.479L154.305 135.591L149.035 133.699L167.974 98.8487L176.249 101.82ZM166.487 122.71L169.158 108.973L168.789 108.84L162.112 121.139L166.487 122.71ZM196.454 114.252L190.393 112.075L178.793 144.384L173.522 142.491L185.123 110.183L179.062 108.006L180.708 103.421L198.101 109.666L196.454 114.252ZM205.46 112.309L192.213 149.202L186.943 147.31L200.19 110.416L205.46 112.309ZM205.155 122.314C205.748 120.663 206.487 119.322 207.373 118.291C208.259 117.26 209.245 116.504 210.33 116.021C211.451 115.551 212.637 115.342 213.887 115.394C215.151 115.411 216.432 115.653 217.732 116.12C219.067 116.599 220.228 117.234 221.213 118.025C222.247 118.792 223.04 119.732 223.593 120.842C224.159 121.918 224.456 123.136 224.483 124.494C224.559 125.83 224.3 127.324 223.707 128.976L216.895 147.95C216.314 149.566 215.564 150.883 214.643 151.901C213.757 152.932 212.747 153.7 211.614 154.205C210.493 154.675 209.284 154.895 207.985 154.866C206.735 154.813 205.442 154.547 204.107 154.068C202.807 153.601 201.657 152.99 200.659 152.235C199.674 151.445 198.898 150.512 198.332 149.436C197.802 148.373 197.522 147.162 197.495 145.803C197.467 144.445 197.749 142.94 198.342 141.288L205.155 122.314ZM203.48 143.549C203.178 144.393 203.024 145.151 203.021 145.824C203.065 146.474 203.199 147.038 203.425 147.516C203.685 148.006 204.012 148.421 204.406 148.761C204.847 149.078 205.331 149.331 205.858 149.52C206.35 149.697 206.867 149.803 207.41 149.839C207.965 149.84 208.481 149.728 208.959 149.503C209.471 149.291 209.934 148.941 210.347 148.454C210.807 147.945 211.189 147.269 211.492 146.426L218.569 126.714C218.872 125.871 219.001 125.124 218.957 124.473C218.961 123.8 218.833 123.219 218.572 122.729C218.347 122.251 218.014 121.854 217.572 121.537C217.144 121.184 216.683 120.92 216.191 120.743C215.664 120.554 215.123 120.459 214.568 120.458C214.061 120.435 213.551 120.529 213.038 120.742C212.561 120.967 212.092 121.334 211.631 121.843C211.219 122.329 210.861 122.994 210.558 123.838L203.48 143.549ZM248.076 127.61L234.829 164.504L228.715 162.309L231.021 131.363L230.704 131.25L221.705 159.792L216.435 157.9L229.682 121.006L235.796 123.201L233.558 154.29L233.874 154.403L242.806 125.718L248.076 127.61Z" fill="black"/>
</svg>
