<svg width="304" height="279" viewBox="0 0 304 279" fill="none" xmlns="http://www.w3.org/2000/svg">
<rect y="192.126" width="286" height="136" rx="68" transform="rotate(-42.2038 0 192.126)" fill="#A1A9F9"/>
<path d="M79.0033 196.986L86.7152 205.49L92.7302 200.035L96.0031 203.644L89.9881 209.099L98.791 218.806L105.221 212.975L108.494 216.584L97.9156 226.177L71.5822 197.139L81.9528 187.734L85.2257 191.343L79.0033 196.986ZM87.2555 182.925L112.965 204.44L113.256 204.176L94.3905 176.455L98.5387 172.693L120.35 205.831L113.879 211.7L83.1072 186.687L87.2555 182.925ZM107.482 171.16L115.194 179.664L121.209 174.209L124.482 177.818L118.467 183.273L127.27 192.979L133.699 187.148L136.972 190.757L126.394 200.35L100.061 171.313L110.432 161.908L113.704 165.517L107.482 171.16ZM126.934 146.942L153.268 175.98L148.456 180.343L122.228 163.759L121.979 163.985L142.939 185.347L138.79 189.109L112.457 160.071L117.269 155.707L143.655 172.299L143.904 172.073L122.786 150.704L126.934 146.942ZM145.4 136.773L140.63 141.099L163.69 166.528L159.542 170.29L136.482 144.861L131.711 149.187L128.438 145.578L142.127 133.164L145.4 136.773ZM155.171 121.335L178.232 146.764L184.454 141.121L187.727 144.73L177.356 154.135L151.023 125.097L155.171 121.335ZM168.801 121.827C167.622 120.527 166.786 119.244 166.293 117.977C165.8 116.711 165.595 115.485 165.679 114.3C165.791 113.09 166.164 111.945 166.799 110.866C167.408 109.759 168.224 108.742 169.247 107.814C170.298 106.861 171.404 106.135 172.565 105.637C173.728 105.086 174.93 104.827 176.171 104.862C177.386 104.868 178.6 105.178 179.812 105.793C181.027 106.354 182.224 107.285 183.402 108.585L196.945 123.518C198.099 124.79 198.909 126.072 199.374 127.364C199.867 128.63 200.07 129.882 199.984 131.12C199.872 132.33 199.497 133.501 198.86 134.633C198.226 135.712 197.384 136.728 196.333 137.681C195.31 138.609 194.23 139.336 193.094 139.862C191.934 140.361 190.745 140.607 189.53 140.6C188.342 140.568 187.142 140.246 185.93 139.631C184.718 139.017 183.522 138.06 182.343 136.76L168.801 121.827ZM186.755 133.289C187.357 133.952 187.954 134.444 188.546 134.764C189.141 135.031 189.702 135.177 190.23 135.203C190.785 135.204 191.305 135.11 191.789 134.922C192.277 134.682 192.728 134.373 193.143 133.997C193.53 133.646 193.867 133.24 194.154 132.778C194.416 132.289 194.56 131.78 194.585 131.253C194.639 130.7 194.548 130.128 194.312 129.535C194.08 128.889 193.662 128.234 193.06 127.571L178.991 112.056C178.389 111.392 177.791 110.927 177.196 110.66C176.603 110.341 176.03 110.18 175.475 110.18C174.947 110.154 174.44 110.261 173.953 110.502C173.44 110.715 172.99 110.997 172.603 111.348C172.188 111.724 171.85 112.157 171.588 112.646C171.329 113.083 171.173 113.577 171.119 114.13C171.093 114.657 171.197 115.244 171.43 115.889C171.665 116.482 172.084 117.111 172.685 117.774L186.755 133.289ZM185.531 106.654C184.353 105.354 183.517 104.071 183.023 102.805C182.53 101.539 182.326 100.313 182.41 99.1276C182.522 97.9173 182.895 96.7725 183.529 95.6935C184.138 94.5867 184.955 93.5694 185.978 92.6414C187.029 91.6884 188.135 90.9627 189.295 90.4644C190.459 89.9133 191.661 89.6549 192.901 89.689C194.117 89.6955 195.331 90.0059 196.543 90.6201C197.758 91.1817 198.954 92.1123 200.133 93.4121L213.676 108.346C214.83 109.618 215.639 110.9 216.105 112.191C216.598 113.457 216.801 114.71 216.714 115.947C216.602 117.158 216.228 118.329 215.591 119.461C214.957 120.54 214.115 121.556 213.064 122.509C212.04 123.437 210.961 124.164 209.825 124.69C208.664 125.188 207.476 125.434 206.261 125.428C205.073 125.396 203.873 125.073 202.661 124.459C201.448 123.845 200.253 122.888 199.074 121.588L185.531 106.654ZM203.486 118.116C204.088 118.78 204.685 119.272 205.277 119.591C205.872 119.858 206.433 120.005 206.96 120.03C207.515 120.031 208.035 119.937 208.52 119.75C209.008 119.509 209.459 119.201 209.874 118.825C210.261 118.474 210.598 118.067 210.885 117.605C211.147 117.116 211.29 116.608 211.316 116.08C211.369 115.528 211.278 114.955 211.043 114.362C210.81 113.717 210.393 113.062 209.791 112.398L195.722 96.8836C195.12 96.2199 194.521 95.7546 193.926 95.4877C193.334 95.168 192.761 95.0078 192.206 95.0071C191.678 94.9814 191.171 95.0888 190.683 95.3292C190.171 95.5421 189.721 95.8241 189.334 96.1752C188.919 96.5514 188.581 96.9842 188.319 97.4735C188.06 97.9102 187.903 98.4047 187.85 98.9572C187.824 99.4845 187.928 100.071 188.16 100.717C188.396 101.31 188.814 101.938 189.416 102.602L203.486 118.116ZM202.67 78.2599C205.076 76.078 207.616 75.2109 210.29 75.6587C212.964 76.1064 215.793 77.9758 218.778 81.2667L218.853 81.3497C221.837 84.6407 223.373 87.5569 223.461 90.0985C223.523 92.6124 222.309 94.9979 219.82 97.255L217.249 99.5874L226.39 109.668L222.242 113.43L195.908 84.3918L202.67 78.2599ZM213.938 95.937L216.51 93.6046C218.667 91.6484 218.492 89.2875 215.984 86.522L213.125 83.3694C210.466 80.4379 208.058 79.9503 205.901 81.9065L203.329 84.2389L213.938 95.937Z" fill="black"/>
</svg>
