<svg width="239" height="136" viewBox="0 0 239 136" fill="none" xmlns="http://www.w3.org/2000/svg">
<rect width="239" height="136" rx="68" fill="#D4C1FA"/>
<path d="M59.0476 51.8C62.2956 51.8 64.7596 52.864 66.4396 54.992C68.1196 57.12 68.9596 60.4053 68.9596 64.848V64.96C68.9596 69.4027 68.1382 72.5947 66.4956 74.536C64.8529 76.44 62.3516 77.392 58.9916 77.392H55.5196V91H49.9196V51.8H59.0476ZM55.5196 72.464H58.9916C61.9036 72.464 63.3596 70.5973 63.3596 66.864V62.608C63.3596 58.6507 61.9036 56.672 58.9916 56.672H55.5196V72.464ZM80.6491 51.8C83.7851 51.8 86.2118 52.696 87.9291 54.488C89.6838 56.28 90.5611 58.8933 90.5611 62.328V62.552C90.5611 65.5387 89.9825 67.8533 88.8251 69.496C87.6678 71.1387 86.3051 72.1093 84.7371 72.408V72.8C85.5211 72.9493 86.2491 73.2853 86.9211 73.808C87.6305 74.2933 88.2465 74.9467 88.7691 75.768C89.3291 76.552 89.7585 77.504 90.0571 78.624C90.3931 79.7067 90.5611 80.92 90.5611 82.264V82.992C90.5611 84.896 90.5985 86.464 90.6731 87.696C90.7478 88.8907 90.8971 89.992 91.1211 91H85.5211C85.2225 89.8427 85.0545 88.6107 85.0171 87.304C84.9798 85.96 84.9611 84.504 84.9611 82.936V79.912C84.9611 78.344 84.5878 77.1493 83.8411 76.328C83.0945 75.4693 82.0118 75.04 80.5931 75.04H77.1211V91H71.5211V51.8H80.6491ZM77.1211 70.168H80.5931C82.0118 70.168 83.0945 69.72 83.8411 68.824C84.5878 67.928 84.9611 66.64 84.9611 64.96V61.88C84.9611 60.2 84.5878 58.912 83.8411 58.016C83.0945 57.12 82.0118 56.672 80.5931 56.672H77.1211V70.168ZM93.7776 61.32C93.7776 59.5653 94.0203 58.0533 94.5056 56.784C94.991 55.5147 95.663 54.4693 96.5216 53.648C97.4176 52.8267 98.463 52.2293 99.6576 51.856C100.852 51.4453 102.14 51.24 103.522 51.24C104.94 51.24 106.247 51.4453 107.442 51.856C108.674 52.2293 109.738 52.8453 110.634 53.704C111.53 54.5253 112.22 55.5707 112.706 56.84C113.228 58.072 113.49 59.5653 113.49 61.32V81.48C113.49 83.1973 113.228 84.6907 112.706 85.96C112.22 87.2293 111.53 88.2933 110.634 89.152C109.738 89.9733 108.674 90.5893 107.442 91C106.247 91.3733 104.94 91.56 103.522 91.56C102.14 91.56 100.852 91.3733 99.6576 91C98.463 90.5893 97.4176 89.9733 96.5216 89.152C95.663 88.3307 94.991 87.2853 94.5056 86.016C94.0203 84.7467 93.7776 83.2347 93.7776 81.48V61.32ZM99.3776 81.872C99.3776 82.768 99.4896 83.5333 99.7136 84.168C99.975 84.7653 100.292 85.2507 100.666 85.624C101.076 85.9973 101.524 86.2773 102.01 86.464C102.532 86.6133 103.074 86.688 103.634 86.688C104.156 86.688 104.679 86.6133 105.202 86.464C105.724 86.2773 106.172 85.9973 106.546 85.624C106.956 85.2507 107.274 84.7653 107.498 84.168C107.759 83.5333 107.89 82.768 107.89 81.872V60.928C107.89 60.032 107.759 59.2853 107.498 58.688C107.274 58.0533 106.956 57.5493 106.546 57.176C106.172 56.8027 105.724 56.5413 105.202 56.392C104.679 56.2053 104.156 56.112 103.634 56.112C103.074 56.112 102.532 56.2053 102.01 56.392C101.524 56.5413 101.076 56.8027 100.666 57.176C100.292 57.5493 99.975 58.0533 99.7136 58.688C99.4896 59.2853 99.3776 60.032 99.3776 60.928V81.872ZM123.98 51.8L128.516 81.816H128.908L133.444 51.8H141.004V91H135.796L136.412 61.096H136.02L130.812 91H126.668L121.404 61.096H121.012L121.628 91H116.42V51.8H123.98ZM149.746 51.8V91H144.146V51.8H149.746ZM166.784 66.08V60.928C166.784 59.3973 166.411 58.2213 165.664 57.4C164.955 56.5413 163.947 56.112 162.64 56.112C161.333 56.112 160.325 56.5413 159.616 57.4C158.907 58.2213 158.552 59.3973 158.552 60.928V63.112C158.552 63.8587 158.627 64.5307 158.776 65.128C158.925 65.688 159.205 66.2107 159.616 66.696C160.027 67.144 160.587 67.592 161.296 68.04C162.005 68.4507 162.92 68.88 164.04 69.328L166.28 70.168C168.557 71.0267 170.163 72.24 171.096 73.808C172.029 75.3387 172.496 77.5413 172.496 80.416V81.48C172.496 84.6533 171.619 87.136 169.864 88.928C168.147 90.6827 165.72 91.56 162.584 91.56C159.448 91.56 157.04 90.6827 155.36 88.928C153.68 87.1733 152.84 84.6907 152.84 81.48V76.72H158.44V81.872C158.44 83.4027 158.813 84.5973 159.56 85.456C160.307 86.2773 161.333 86.688 162.64 86.688C163.984 86.688 165.029 86.2773 165.776 85.456C166.523 84.5973 166.896 83.4027 166.896 81.872V79.52C166.896 78.7733 166.803 78.12 166.616 77.56C166.467 76.9627 166.187 76.44 165.776 75.992C165.403 75.5067 164.861 75.0587 164.152 74.648C163.48 74.2373 162.603 73.808 161.52 73.36L159.056 72.464C156.853 71.6053 155.285 70.392 154.352 68.824C153.419 67.2187 152.952 64.9973 152.952 62.16V61.32C152.952 58.072 153.792 55.5893 155.472 53.872C157.152 52.1173 159.523 51.24 162.584 51.24C165.683 51.24 168.091 52.136 169.808 53.928C171.525 55.6827 172.384 58.1467 172.384 61.32V66.08H166.784ZM181.082 56.672V68.152H189.202V73.024H181.082V86.128H189.762V91H175.482V51.8H189.482V56.672H181.082Z" fill="black"/>
</svg>
