<svg width="311" height="232" viewBox="0 0 311 232" fill="none" xmlns="http://www.w3.org/2000/svg">
<rect x="44.0483" width="319" height="136" rx="68" transform="rotate(18.8981 44.0483 0)" fill="#FCF2FE"/>
<path d="M83.0286 68.0957C86.1015 69.1477 88.0881 70.9524 88.9883 73.5098C89.8885 76.0672 89.6192 79.4476 88.1803 83.6507L88.144 83.7567C86.7051 87.9599 84.8942 90.7138 82.7113 92.0185C80.5405 93.2878 77.8656 93.3783 74.6868 92.2901L71.4019 91.1656L66.9945 104.04L61.6963 102.226L74.3926 65.1393L83.0286 68.0957ZM72.998 86.5032L76.2829 87.6277C79.0379 88.5709 81.02 87.2764 82.2292 83.7443L83.6076 79.7177C84.8893 75.9737 84.1527 73.6301 81.3977 72.687L78.1128 71.5624L72.998 86.5032ZM103.466 75.0922C106.433 76.1079 108.438 77.7415 109.483 79.9931C110.562 82.2569 110.546 85.0135 109.434 88.263L109.361 88.4749C108.394 91.3006 107.097 93.3031 105.47 94.4824C103.843 95.6616 102.239 96.1386 100.659 95.9134L100.532 96.2842C101.225 96.6794 101.805 97.2331 102.272 97.9453C102.786 98.6342 103.157 99.4518 103.385 100.398C103.661 101.321 103.759 102.361 103.679 103.517C103.646 104.65 103.412 105.853 102.977 107.124L102.741 107.813C102.124 109.615 101.652 111.11 101.323 112.3C101.007 113.454 100.792 114.545 100.677 115.571L95.3788 113.757C95.4711 112.565 95.7112 111.345 96.0991 110.097C96.4991 108.813 96.953 107.43 97.4608 105.946L98.4403 103.085C98.9481 101.602 98.9818 100.351 98.5414 99.3318C98.1131 98.2776 97.2279 97.5208 95.8857 97.0613L92.6008 95.9368L87.4316 111.036L82.1335 109.223L94.8298 72.1357L103.466 75.0922ZM94.1788 91.3274L97.4637 92.4519C98.8059 92.9114 99.9753 92.8382 100.972 92.2323C101.969 91.6265 102.739 90.5288 103.283 88.9394L104.281 86.0254C104.825 84.436 104.889 83.0965 104.472 82.0069C104.056 80.9174 103.177 80.1429 101.835 79.6834L98.55 78.5589L94.1788 91.3274ZM112.803 88.3511C113.372 86.691 114.091 85.3391 114.961 84.2954C115.831 83.2517 116.806 82.4804 117.884 81.9814C118.998 81.4946 120.18 81.268 121.432 81.3017C122.695 81.3001 123.98 81.523 125.287 81.9704C126.629 82.4299 127.799 83.0474 128.796 83.8228C129.841 84.5751 130.648 85.5025 131.217 86.6051C131.799 87.6723 132.114 88.885 132.162 90.2431C132.257 91.578 132.021 93.0755 131.453 94.7355L124.923 113.809C124.367 115.434 123.636 116.762 122.73 117.793C121.86 118.837 120.862 119.62 119.736 120.142C118.623 120.629 117.416 120.867 116.118 120.857C114.867 120.823 113.57 120.577 112.228 120.117C110.921 119.67 109.763 119.076 108.753 118.336C107.756 117.56 106.967 116.639 106.385 115.572C105.839 114.516 105.541 113.31 105.493 111.952C105.445 110.594 105.705 109.085 106.274 107.424L112.803 88.3511ZM111.445 109.609C111.155 110.457 111.013 111.217 111.019 111.89C111.073 112.54 111.216 113.102 111.448 113.576C111.716 114.062 112.049 114.472 112.448 114.806C112.894 115.117 113.382 115.363 113.912 115.544C114.406 115.713 114.925 115.812 115.468 115.84C116.023 115.833 116.537 115.713 117.011 115.48C117.521 115.26 117.978 114.904 118.384 114.411C118.836 113.895 119.208 113.214 119.498 112.366L126.281 92.5509C126.572 91.7032 126.69 90.9545 126.636 90.3047C126.63 89.6317 126.493 89.0521 126.225 88.5659C125.993 88.0917 125.654 87.6994 125.208 87.3888C124.773 87.0429 124.309 86.7853 123.815 86.6161C123.285 86.4347 122.743 86.3477 122.188 86.355C121.68 86.3391 121.172 86.4412 120.662 86.6614C120.188 86.8937 119.725 87.2678 119.272 87.7836C118.866 88.2762 118.519 88.9463 118.228 89.794L111.445 109.609ZM151.843 96.803L145.75 94.7172L134.631 127.195L129.333 125.381L140.452 92.9034L134.359 90.8176L135.937 86.2082L153.421 92.1936L151.843 96.803ZM152.125 101.813C152.694 100.153 153.413 98.8006 154.283 97.7569C155.154 96.7132 156.128 95.9418 157.206 95.4429C158.32 94.956 159.502 94.7295 160.754 94.7632C162.017 94.7616 163.302 94.9845 164.609 95.4319C165.951 95.8914 167.121 96.5089 168.118 97.2843C169.163 98.0366 169.97 98.964 170.539 100.067C171.121 101.134 171.436 102.346 171.484 103.705C171.58 105.039 171.343 106.537 170.775 108.197L164.245 127.27C163.689 128.895 162.958 130.223 162.053 131.255C161.182 132.299 160.184 133.082 159.058 133.604C157.945 134.091 156.738 134.329 155.44 134.318C154.189 134.285 152.892 134.038 151.55 133.578C150.243 133.131 149.085 132.537 148.075 131.797C147.078 131.022 146.289 130.1 145.707 129.033C145.161 127.978 144.863 126.771 144.815 125.413C144.767 124.055 145.027 122.546 145.596 120.886L152.125 101.813ZM150.767 123.071C150.477 123.918 150.335 124.679 150.341 125.352C150.395 126.001 150.538 126.563 150.77 127.037C151.038 127.524 151.371 127.934 151.77 128.267C152.216 128.578 152.704 128.824 153.234 129.005C153.728 129.175 154.247 129.273 154.79 129.301C155.345 129.294 155.859 129.174 156.333 128.942C156.843 128.722 157.3 128.365 157.706 127.873C158.158 127.357 158.53 126.675 158.82 125.827L165.604 106.012C165.894 105.165 166.012 104.416 165.958 103.766C165.952 103.093 165.815 102.514 165.547 102.027C165.315 101.553 164.976 101.161 164.53 100.85C164.096 100.504 163.631 100.247 163.137 100.078C162.607 99.8962 162.065 99.8091 161.51 99.8165C161.002 99.8006 160.494 99.9027 159.984 100.123C159.51 100.355 159.047 100.729 158.594 101.245C158.188 101.738 157.841 102.408 157.55 103.255L150.767 123.071ZM191.165 110.264L185.072 108.179L173.954 140.656L168.655 138.843L179.774 106.365L173.681 104.279L175.259 99.6697L192.743 105.655L191.165 110.264ZM198.769 107.718L195.737 127.989L196.107 128.116L206.134 110.239L211.432 112.053L195.934 136.402L192.325 146.945L187.027 145.132L190.636 134.588L193.418 105.886L198.769 107.718ZM221.95 115.654C225.022 116.706 227.009 118.51 227.909 121.068C228.809 123.625 228.54 127.006 227.101 131.209L227.065 131.315C225.626 135.518 223.815 138.272 221.632 139.576C219.461 140.846 216.787 140.936 213.608 139.848L210.323 138.724L205.915 151.598L200.617 149.784L213.314 112.697L221.95 115.654ZM211.919 134.061L215.204 135.186C217.959 136.129 219.941 134.834 221.15 131.302L222.529 127.276C223.81 123.532 223.074 121.188 220.319 120.245L217.034 119.12L211.919 134.061ZM239.049 121.507L226.353 158.594L221.054 156.781L233.751 119.694L239.049 121.507ZM260.52 128.858L247.823 165.945L241.677 163.841L243.522 132.864L243.204 132.756L234.631 161.428L229.333 159.615L242.029 122.528L248.175 124.632L246.4 155.75L246.718 155.859L255.221 127.044L260.52 128.858ZM259.005 160.125C258.485 161.643 258.463 162.918 258.939 163.949C259.427 164.945 260.13 165.6 261.048 165.914C261.578 166.096 262.15 166.154 262.764 166.088C263.379 166.022 263.983 165.814 264.576 165.465C265.181 165.08 265.74 164.541 266.254 163.849C266.802 163.169 267.252 162.316 267.602 161.292L269.616 155.411L265.43 153.978L266.645 150.429L276.076 153.657L269.347 173.313L265.585 172.025L267.091 167.628L266.72 167.501C265.622 168.98 264.298 169.908 262.748 170.285C261.199 170.662 259.7 170.602 258.251 170.107C257.298 169.78 256.422 169.283 255.625 168.615C254.839 167.913 254.209 167.046 253.733 166.015C253.305 164.96 253.067 163.754 253.019 162.396C253.006 161.05 253.278 159.565 253.834 157.94L260.363 138.867C260.932 137.207 261.651 135.855 262.521 134.811C263.392 133.767 264.366 132.996 265.444 132.497C266.558 132.01 267.741 131.784 268.992 131.817C270.255 131.816 271.558 132.045 272.9 132.504C274.242 132.964 275.412 133.581 276.409 134.357C277.418 135.097 278.19 136.012 278.725 137.102C279.306 138.17 279.621 139.382 279.669 140.741C279.765 142.075 279.528 143.573 278.96 145.233L276.928 151.167L271.683 149.371L273.824 143.119C274.114 142.272 274.232 141.523 274.178 140.873C274.172 140.2 274.035 139.621 273.767 139.134C273.535 138.66 273.196 138.268 272.75 137.957C272.351 137.624 271.887 137.366 271.357 137.185C270.862 137.015 270.338 136.934 269.783 136.942C269.24 136.914 268.714 137.01 268.204 137.23C267.73 137.462 267.267 137.836 266.814 138.352C266.408 138.845 266.061 139.515 265.77 140.363L259.005 160.125Z" fill="black"/>
</svg>
