<svg width="203" height="133" viewBox="0 0 203 133" fill="none" xmlns="http://www.w3.org/2000/svg">
<rect width="203" height="136" rx="68" fill="#EAEAEA"/>
<path d="M63.9091 66.08V60.928C63.9091 59.3973 63.5358 58.2213 62.7891 57.4C62.0798 56.5413 61.0718 56.112 59.7651 56.112C58.4585 56.112 57.4505 56.5413 56.7411 57.4C56.0318 58.2213 55.6771 59.3973 55.6771 60.928V63.112C55.6771 63.8587 55.7518 64.5307 55.9011 65.128C56.0505 65.688 56.3305 66.2107 56.7411 66.696C57.1518 67.144 57.7118 67.592 58.4211 68.04C59.1305 68.4507 60.0451 68.88 61.1651 69.328L63.4051 70.168C65.6825 71.0267 67.2878 72.24 68.2211 73.808C69.1545 75.3387 69.6211 77.5413 69.6211 80.416V81.48C69.6211 84.6533 68.7438 87.136 66.9891 88.928C65.2718 90.6827 62.8451 91.56 59.7091 91.56C56.5731 91.56 54.1651 90.6827 52.4851 88.928C50.8051 87.1733 49.9651 84.6907 49.9651 81.48V76.72H55.5651V81.872C55.5651 83.4027 55.9385 84.5973 56.6851 85.456C57.4318 86.2773 58.4585 86.688 59.7651 86.688C61.1091 86.688 62.1545 86.2773 62.9011 85.456C63.6478 84.5973 64.0211 83.4027 64.0211 81.872V79.52C64.0211 78.7733 63.9278 78.12 63.7411 77.56C63.5918 76.9627 63.3118 76.44 62.9011 75.992C62.5278 75.5067 61.9865 75.0587 61.2771 74.648C60.6051 74.2373 59.7278 73.808 58.6451 73.36L56.1811 72.464C53.9785 71.6053 52.4105 70.392 51.4771 68.824C50.5438 67.2187 50.0771 64.9973 50.0771 62.16V61.32C50.0771 58.072 50.9171 55.5893 52.5971 53.872C54.2771 52.1173 56.6478 51.24 59.7091 51.24C62.8078 51.24 65.2158 52.136 66.9331 53.928C68.6505 55.6827 69.5091 58.1467 69.5091 61.32V66.08H63.9091ZM78.0951 81.872C78.0951 82.768 78.2071 83.5333 78.4311 84.168C78.6924 84.7653 79.0097 85.2507 79.3831 85.624C79.7937 85.9973 80.2604 86.2773 80.7831 86.464C81.3057 86.6133 81.8284 86.688 82.3511 86.688C82.9111 86.688 83.4337 86.6133 83.9191 86.464C84.4417 86.2773 84.8897 85.9973 85.2631 85.624C85.6737 85.2507 85.9911 84.7653 86.2151 84.168C86.4764 83.5333 86.6071 82.768 86.6071 81.872V73.92H92.2071V81.48C92.2071 83.1973 91.9457 84.6907 91.4231 85.96C90.9377 87.2293 90.2471 88.2933 89.3511 89.152C88.4924 89.9733 87.4471 90.5893 86.2151 91C85.0204 91.3733 83.7137 91.56 82.2951 91.56C80.8764 91.56 79.5697 91.3733 78.3751 91C77.1804 90.5893 76.1351 89.9733 75.2391 89.152C74.3804 88.3307 73.7084 87.2853 73.2231 86.016C72.7377 84.7467 72.4951 83.2347 72.4951 81.48V61.32C72.4951 59.5653 72.7377 58.0533 73.2231 56.784C73.7084 55.5147 74.3804 54.4693 75.2391 53.648C76.1351 52.8267 77.1804 52.2293 78.3751 51.856C79.5697 51.4453 80.8764 51.24 82.2951 51.24C83.7137 51.24 85.0204 51.4453 86.2151 51.856C87.4471 52.2293 88.4924 52.8453 89.3511 53.704C90.2471 54.5253 90.9377 55.5707 91.4231 56.84C91.9457 58.072 92.2071 59.5653 92.2071 61.32V68.88H86.6071V60.928C86.6071 60.032 86.4764 59.2853 86.2151 58.688C85.9911 58.0533 85.6737 57.5493 85.2631 57.176C84.8897 56.8027 84.4417 56.5413 83.9191 56.392C83.4337 56.2053 82.9111 56.112 82.3511 56.112C81.8284 56.112 81.3057 56.2053 80.7831 56.392C80.2604 56.5413 79.7937 56.8027 79.3831 57.176C79.0097 57.5493 78.6924 58.0533 78.4311 58.688C78.2071 59.2853 78.0951 60.032 78.0951 60.928V81.872ZM95.137 61.32C95.137 59.5653 95.3797 58.0533 95.865 56.784C96.3503 55.5147 97.0223 54.4693 97.881 53.648C98.777 52.8267 99.8223 52.2293 101.017 51.856C102.212 51.4453 103.5 51.24 104.881 51.24C106.3 51.24 107.606 51.4453 108.801 51.856C110.033 52.2293 111.097 52.8453 111.993 53.704C112.889 54.5253 113.58 55.5707 114.065 56.84C114.588 58.072 114.849 59.5653 114.849 61.32V81.48C114.849 83.1973 114.588 84.6907 114.065 85.96C113.58 87.2293 112.889 88.2933 111.993 89.152C111.097 89.9733 110.033 90.5893 108.801 91C107.606 91.3733 106.3 91.56 104.881 91.56C103.5 91.56 102.212 91.3733 101.017 91C99.8223 90.5893 98.777 89.9733 97.881 89.152C97.0223 88.3307 96.3503 87.2853 95.865 86.016C95.3797 84.7467 95.137 83.2347 95.137 81.48V61.32ZM100.737 81.872C100.737 82.768 100.849 83.5333 101.073 84.168C101.334 84.7653 101.652 85.2507 102.025 85.624C102.436 85.9973 102.884 86.2773 103.369 86.464C103.892 86.6133 104.433 86.688 104.993 86.688C105.516 86.688 106.038 86.6133 106.561 86.464C107.084 86.2773 107.532 85.9973 107.905 85.624C108.316 85.2507 108.633 84.7653 108.857 84.168C109.118 83.5333 109.249 82.768 109.249 81.872V60.928C109.249 60.032 109.118 59.2853 108.857 58.688C108.633 58.0533 108.316 57.5493 107.905 57.176C107.532 56.8027 107.084 56.5413 106.561 56.392C106.038 56.2053 105.516 56.112 104.993 56.112C104.433 56.112 103.892 56.2053 103.369 56.392C102.884 56.5413 102.436 56.8027 102.025 57.176C101.652 57.5493 101.334 58.0533 101.073 58.688C100.849 59.2853 100.737 60.032 100.737 60.928V81.872ZM126.907 51.8C130.155 51.8 132.619 52.864 134.299 54.992C135.979 57.12 136.819 60.4053 136.819 64.848V64.96C136.819 69.4027 135.998 72.5947 134.355 74.536C132.712 76.44 130.211 77.392 126.851 77.392H123.379V91H117.779V51.8H126.907ZM123.379 72.464H126.851C129.763 72.464 131.219 70.5973 131.219 66.864V62.608C131.219 58.6507 129.763 56.672 126.851 56.672H123.379V72.464ZM144.981 56.672V68.152H153.101V73.024H144.981V86.128H153.661V91H139.381V51.8H153.381V56.672H144.981Z" fill="black"/>
</svg>
