<svg width="341" height="136" viewBox="0 0 341 136" fill="none" xmlns="http://www.w3.org/2000/svg">
<rect width="341" height="136" rx="68" fill="#7935BB"/>
<path d="M63.7021 66.08V60.928C63.7021 59.3973 63.3288 58.2213 62.5821 57.4C61.8728 56.5413 60.8648 56.112 59.5581 56.112C58.2514 56.112 57.2434 56.5413 56.5341 57.4C55.8248 58.2213 55.4701 59.3973 55.4701 60.928V63.112C55.4701 63.8587 55.5448 64.5307 55.6941 65.128C55.8434 65.688 56.1234 66.2107 56.5341 66.696C56.9448 67.144 57.5048 67.592 58.2141 68.04C58.9234 68.4507 59.8381 68.88 60.9581 69.328L63.1981 70.168C65.4754 71.0267 67.0808 72.24 68.0141 73.808C68.9474 75.3387 69.4141 77.5413 69.4141 80.416V81.48C69.4141 84.6533 68.5368 87.136 66.7821 88.928C65.0648 90.6827 62.6381 91.56 59.5021 91.56C56.3661 91.56 53.9581 90.6827 52.2781 88.928C50.5981 87.1733 49.7581 84.6907 49.7581 81.48V76.72H55.3581V81.872C55.3581 83.4027 55.7314 84.5973 56.4781 85.456C57.2248 86.2773 58.2514 86.688 59.5581 86.688C60.9021 86.688 61.9474 86.2773 62.6941 85.456C63.4408 84.5973 63.8141 83.4027 63.8141 81.872V79.52C63.8141 78.7733 63.7208 78.12 63.5341 77.56C63.3848 76.9627 63.1048 76.44 62.6941 75.992C62.3208 75.5067 61.7794 75.0587 61.0701 74.648C60.3981 74.2373 59.5208 73.808 58.4381 73.36L55.9741 72.464C53.7714 71.6053 52.2034 70.392 51.2701 68.824C50.3368 67.2187 49.8701 64.9973 49.8701 62.16V61.32C49.8701 58.072 50.7101 55.5893 52.3901 53.872C54.0701 52.1173 56.4408 51.24 59.5021 51.24C62.6008 51.24 65.0088 52.136 66.7261 53.928C68.4434 55.6827 69.3021 58.1467 69.3021 61.32V66.08H63.7021ZM91.104 51.744V90.944H85.504V73.304H78V90.944H72.4V51.744H78V68.432H85.504V51.744H91.104ZM107.884 51.8L113.876 91H108.276L106.484 79.632H100.38L98.6443 91H93.0443L99.0923 51.8H107.884ZM105.756 74.76L103.628 60.928H103.236L101.108 74.76H105.756ZM121.367 51.8V86.128H129.767V91H115.767V51.8H121.367ZM137.336 51.8V86.128H145.736V91H131.736V51.8H137.336ZM147.102 61.32C147.102 59.5653 147.345 58.0533 147.83 56.784C148.315 55.5147 148.987 54.4693 149.846 53.648C150.742 52.8267 151.787 52.2293 152.982 51.856C154.177 51.4453 155.465 51.24 156.846 51.24C158.265 51.24 159.571 51.4453 160.766 51.856C161.998 52.2293 163.062 52.8453 163.958 53.704C164.854 54.5253 165.545 55.5707 166.03 56.84C166.553 58.072 166.814 59.5653 166.814 61.32V81.48C166.814 83.1973 166.553 84.6907 166.03 85.96C165.545 87.2293 164.854 88.2933 163.958 89.152C163.062 89.9733 161.998 90.5893 160.766 91C159.571 91.3733 158.265 91.56 156.846 91.56C155.465 91.56 154.177 91.3733 152.982 91C151.787 90.5893 150.742 89.9733 149.846 89.152C148.987 88.3307 148.315 87.2853 147.83 86.016C147.345 84.7467 147.102 83.2347 147.102 81.48V61.32ZM152.702 81.872C152.702 82.768 152.814 83.5333 153.038 84.168C153.299 84.7653 153.617 85.2507 153.99 85.624C154.401 85.9973 154.849 86.2773 155.334 86.464C155.857 86.6133 156.398 86.688 156.958 86.688C157.481 86.688 158.003 86.6133 158.526 86.464C159.049 86.2773 159.497 85.9973 159.87 85.624C160.281 85.2507 160.598 84.7653 160.822 84.168C161.083 83.5333 161.214 82.768 161.214 81.872V60.928C161.214 60.032 161.083 59.2853 160.822 58.688C160.598 58.0533 160.281 57.5493 159.87 57.176C159.497 56.8027 159.049 56.5413 158.526 56.392C158.003 56.2053 157.481 56.112 156.958 56.112C156.398 56.112 155.857 56.2053 155.334 56.392C154.849 56.5413 154.401 56.8027 153.99 57.176C153.617 57.5493 153.299 58.0533 153.038 58.688C152.814 59.2853 152.702 60.032 152.702 60.928V81.872ZM173.621 51.8L176.589 81.76H176.981L180.397 51.8H184.261L187.677 81.76H188.069L191.037 51.8H196.693L191.989 91H185.493L182.469 66.416H182.077L179.053 91H172.613L168.021 51.8H173.621ZM214.169 81.872C214.169 82.768 214.281 83.5333 214.505 84.168C214.767 84.7653 215.084 85.2507 215.457 85.624C215.868 85.9973 216.335 86.2773 216.857 86.464C217.38 86.6133 217.903 86.688 218.425 86.688C218.985 86.688 219.508 86.6133 219.993 86.464C220.516 86.2773 220.964 85.9973 221.337 85.624C221.748 85.2507 222.065 84.7653 222.289 84.168C222.551 83.5333 222.681 82.768 222.681 81.872V73.92H228.281V81.48C228.281 83.1973 228.02 84.6907 227.497 85.96C227.012 87.2293 226.321 88.2933 225.425 89.152C224.567 89.9733 223.521 90.5893 222.289 91C221.095 91.3733 219.788 91.56 218.369 91.56C216.951 91.56 215.644 91.3733 214.449 91C213.255 90.5893 212.209 89.9733 211.313 89.152C210.455 88.3307 209.783 87.2853 209.297 86.016C208.812 84.7467 208.569 83.2347 208.569 81.48V61.32C208.569 59.5653 208.812 58.0533 209.297 56.784C209.783 55.5147 210.455 54.4693 211.313 53.648C212.209 52.8267 213.255 52.2293 214.449 51.856C215.644 51.4453 216.951 51.24 218.369 51.24C219.788 51.24 221.095 51.4453 222.289 51.856C223.521 52.2293 224.567 52.8453 225.425 53.704C226.321 54.5253 227.012 55.5707 227.497 56.84C228.02 58.072 228.281 59.5653 228.281 61.32V68.88H222.681V60.928C222.681 60.032 222.551 59.2853 222.289 58.688C222.065 58.0533 221.748 57.5493 221.337 57.176C220.964 56.8027 220.516 56.5413 219.993 56.392C219.508 56.2053 218.985 56.112 218.425 56.112C217.903 56.112 217.38 56.2053 216.857 56.392C216.335 56.5413 215.868 56.8027 215.457 57.176C215.084 57.5493 214.767 58.0533 214.505 58.688C214.281 59.2853 214.169 60.032 214.169 60.928V81.872ZM231.211 61.32C231.211 59.5653 231.454 58.0533 231.939 56.784C232.425 55.5147 233.097 54.4693 233.955 53.648C234.851 52.8267 235.897 52.2293 237.091 51.856C238.286 51.4453 239.574 51.24 240.955 51.24C242.374 51.24 243.681 51.4453 244.875 51.856C246.107 52.2293 247.171 52.8453 248.067 53.704C248.963 54.5253 249.654 55.5707 250.139 56.84C250.662 58.072 250.923 59.5653 250.923 61.32V81.48C250.923 83.1973 250.662 84.6907 250.139 85.96C249.654 87.2293 248.963 88.2933 248.067 89.152C247.171 89.9733 246.107 90.5893 244.875 91C243.681 91.3733 242.374 91.56 240.955 91.56C239.574 91.56 238.286 91.3733 237.091 91C235.897 90.5893 234.851 89.9733 233.955 89.152C233.097 88.3307 232.425 87.2853 231.939 86.016C231.454 84.7467 231.211 83.2347 231.211 81.48V61.32ZM236.811 81.872C236.811 82.768 236.923 83.5333 237.147 84.168C237.409 84.7653 237.726 85.2507 238.099 85.624C238.51 85.9973 238.958 86.2773 239.443 86.464C239.966 86.6133 240.507 86.688 241.067 86.688C241.59 86.688 242.113 86.6133 242.635 86.464C243.158 86.2773 243.606 85.9973 243.979 85.624C244.39 85.2507 244.707 84.7653 244.931 84.168C245.193 83.5333 245.323 82.768 245.323 81.872V60.928C245.323 60.032 245.193 59.2853 244.931 58.688C244.707 58.0533 244.39 57.5493 243.979 57.176C243.606 56.8027 243.158 56.5413 242.635 56.392C242.113 56.2053 241.59 56.112 241.067 56.112C240.507 56.112 239.966 56.2053 239.443 56.392C238.958 56.5413 238.51 56.8027 238.099 57.176C237.726 57.5493 237.409 58.0533 237.147 58.688C236.923 59.2853 236.811 60.032 236.811 60.928V81.872ZM262.981 51.8C266.229 51.8 268.693 52.864 270.373 54.992C272.053 57.12 272.893 60.4053 272.893 64.848V64.96C272.893 69.4027 272.072 72.5947 270.429 74.536C268.786 76.44 266.285 77.392 262.925 77.392H259.453V91H253.853V51.8H262.981ZM259.453 72.464H262.925C265.837 72.464 267.293 70.5973 267.293 66.864V62.608C267.293 58.6507 265.837 56.672 262.925 56.672H259.453V72.464ZM278.949 51.8L282.645 71.96H283.037L286.733 51.8H292.333L285.557 79.856V91H279.957V79.856L273.293 51.8H278.949Z" fill="white"/>
</svg>
