<svg width="261" height="136" viewBox="0 0 261 136" fill="none" xmlns="http://www.w3.org/2000/svg">
<rect width="261" height="136" rx="68" fill="#FEFAC6"/>
<path d="M54.1053 51.8L58.6973 85.008H59.0893L63.7373 51.8H69.3373L63.2333 91H54.4973L48.5053 51.8H54.1053ZM71.2282 61.04C71.2282 57.6427 72.0495 55.16 73.6922 53.592C75.3722 52.024 77.7988 51.24 80.9722 51.24C84.1455 51.24 86.5908 52.0427 88.3082 53.648C90.0628 55.216 90.9402 57.68 90.9402 61.04V61.992C90.9402 63.112 90.7908 64.1573 90.4922 65.128C90.1935 66.0613 89.8015 66.8827 89.3162 67.592C88.8308 68.3013 88.2522 68.88 87.5802 69.328C86.9455 69.776 86.2548 70.056 85.5082 70.168V70.56C87.0015 70.8213 88.3082 71.68 89.4282 73.136C90.5482 74.592 91.1082 76.8133 91.1082 79.8V81.48C91.1082 84.9893 90.2122 87.5467 88.4202 89.152C86.6282 90.7573 84.1455 91.56 80.9722 91.56C77.7988 91.56 75.3535 90.7573 73.6362 89.152C71.9562 87.5467 71.1162 84.9893 71.1162 81.48V79.8C71.1162 76.888 71.6202 74.6853 72.6282 73.192C73.6362 71.6613 74.8868 70.7653 76.3802 70.504V70.112C74.9242 69.8507 73.6922 68.992 72.6842 67.536C71.7135 66.08 71.2282 64.232 71.2282 61.992V61.04ZM76.8282 63.336C76.8282 64.9787 77.2575 66.1547 78.1162 66.864C79.0122 67.536 80.0015 67.872 81.0842 67.872C82.1668 67.872 83.1375 67.536 83.9962 66.864C84.8922 66.1547 85.3402 64.9787 85.3402 63.336V60.928C85.3402 59.136 84.9108 57.8853 84.0522 57.176C83.1935 56.4667 82.2042 56.112 81.0842 56.112C79.9642 56.112 78.9748 56.4667 78.1162 57.176C77.2575 57.8853 76.8282 59.136 76.8282 60.928V63.336ZM76.7162 81.872C76.7162 83.664 77.1642 84.9147 78.0602 85.624C78.9562 86.3333 79.9642 86.688 81.0842 86.688C82.2042 86.688 83.2122 86.3333 84.1082 85.624C85.0415 84.9147 85.5082 83.664 85.5082 81.872V77.616C85.5082 76.1227 85.1348 74.9467 84.3882 74.088C83.6415 73.2293 82.5402 72.8 81.0842 72.8C79.6282 72.8 78.5268 73.2293 77.7802 74.088C77.0708 74.9467 76.7162 76.1227 76.7162 77.616V81.872ZM109.75 56.672V68.152H117.87V73.024H109.75V86.128H118.43V91H104.15V51.8H118.15V56.672H109.75ZM140.428 51.8V91H133.932L125.644 61.096H125.308L126.484 91H120.884V51.8H127.38L135.78 81.816H136.116L134.828 51.8H140.428ZM149.122 81.872C149.122 83.4773 149.514 84.6907 150.298 85.512C151.082 86.296 151.96 86.688 152.93 86.688C153.49 86.688 154.05 86.5573 154.61 86.296C155.17 86.0347 155.674 85.6427 156.122 85.12C156.57 84.56 156.925 83.8693 157.186 83.048C157.485 82.2267 157.634 81.2747 157.634 80.192V73.976H153.21V70.224H163.178V91H159.202V86.352H158.81C158.25 88.1067 157.298 89.4133 155.954 90.272C154.61 91.1307 153.173 91.56 151.642 91.56C150.634 91.56 149.645 91.3733 148.674 91C147.704 90.5893 146.826 89.9733 146.042 89.152C145.296 88.2933 144.68 87.2293 144.194 85.96C143.746 84.6907 143.522 83.1973 143.522 81.48V61.32C143.522 59.5653 143.765 58.0533 144.25 56.784C144.736 55.5147 145.408 54.4693 146.266 53.648C147.162 52.8267 148.208 52.2293 149.402 51.856C150.597 51.4453 151.904 51.24 153.322 51.24C154.741 51.24 156.048 51.4453 157.242 51.856C158.437 52.2293 159.464 52.8453 160.322 53.704C161.218 54.5253 161.909 55.5707 162.394 56.84C162.917 58.072 163.178 59.5653 163.178 61.32V67.592H157.634V60.984C157.634 60.088 157.504 59.3413 157.242 58.744C157.018 58.1093 156.701 57.6053 156.29 57.232C155.917 56.8587 155.469 56.5973 154.946 56.448C154.461 56.2613 153.938 56.168 153.378 56.168C152.856 56.168 152.333 56.2613 151.81 56.448C151.288 56.5973 150.821 56.8587 150.41 57.232C150.037 57.6053 149.72 58.1093 149.458 58.744C149.234 59.3413 149.122 60.088 149.122 60.984V81.872ZM171.82 51.8V91H166.22V51.8H171.82ZM194.514 51.8V91H188.018L179.73 61.096H179.394L180.57 91H174.97V51.8H181.466L189.866 81.816H190.202L188.914 51.8H194.514ZM203.32 56.672V68.152H211.44V73.024H203.32V86.128H212V91H197.72V51.8H211.72V56.672H203.32Z" fill="black"/>
</svg>
